<svg width="1200" height="120" viewBox="0 0 1200 120" xmlns="http://www.w3.org/2000/svg">
  <defs>
    <linearGradient id="bg" x1="0%" y1="0%" x2="100%" y2="100%">
      <stop offset="0%" stop-color="#e6eeed" />
      <stop offset="100%" stop-color="#f0f5f4" />
    </linearGradient>
    <linearGradient id="accentGlow" x1="0%" y1="0%" x2="100%" y2="0%">
      <stop offset="0%" stop-color="#38f1cf" />
      <stop offset="100%" stop-color="#8cdccd" />
    </linearGradient>
  </defs>

  <rect width="1200" height="120" rx="0" fill="url(#bg)" />
  <rect x="0" y="0" width="1200" height="120" rx="0" fill="none" stroke="rgba(9,18,17,0.1)" />

  <text x="40" y="70" font-family="Inter, sans-serif" font-size="24" font-weight="600" fill="#091211">
    Code4Flyer
  </text>

  <g font-family="Inter, sans-serif" font-size="16" font-weight="400" fill="#091211">
    <text x="400" y="50">Accueil</text>
    <text x="520" y="50">À propos</text>
    <text x="660" y="50">Services</text>
    <text x="800" y="50">Contact</text>
  </g>

  <line x1="400" y1="58" x2="470" y2="58" stroke="url(#accentGlow)" stroke-width="2" />
  <line x1="520" y1="58" x2="600" y2="58" stroke="transparent" stroke-width="2" />
  <line x1="660" y1="58" x2="740" y2="58" stroke="transparent" stroke-width="2" />
  <line x1="800" y1="58" x2="880" y2="58" stroke="transparent" stroke-width="2" />

  <g transform="translate(1000, 35)">
    <rect x="0" y="0" width="120" height="50" rx="8" fill="none" />
    <rect x="10" y="10" width="25" height="3" rx="1.5" fill="#091211" />
    <rect x="10" y="20" width="25" height="3" rx="1.5" fill="#091211" />
    <rect x="10" y="30" width="25" height="3" rx="1.5" fill="#091211" />
  </g>

  <rect x="400" y="35" width="70" height="30" rx="6" fill="rgba(25,140,119,0.1)" />
</svg>